<svg width="55" height="55" viewBox="0 0 55 55" fill="none" xmlns="http://www.w3.org/2000/svg">
<g id="Puzzle (&#230;&#139;&#188;&#229;&#155;&#190;)" filter="url(#filter0_i_13_66)">
<path id="Vector (Stroke)" fill-rule="evenodd" clip-rule="evenodd" d="M21.7709 6.87496C19.2396 6.87496 17.1875 8.92699 17.1875 11.4583V13.75C17.1875 15.0156 16.1615 16.0416 14.8959 16.0416H6.87502V25.2083H9.16669C14.2293 25.2083 18.3334 29.3124 18.3334 34.375C18.3334 39.4376 14.2293 43.5416 9.16669 43.5416H6.87502V48.125H36.6667V41.25C36.6667 39.9843 37.6927 38.9583 38.9584 38.9583H43.5417C46.073 38.9583 48.125 36.9063 48.125 34.375C48.125 31.8437 46.073 29.7916 43.5417 29.7916H38.9584C37.6927 29.7916 36.6667 28.7656 36.6667 27.5V16.0416H28.6459C27.3802 16.0416 26.3542 15.0156 26.3542 13.75V11.4583C26.3542 8.92699 24.3022 6.87496 21.7709 6.87496ZM12.6042 11.4583C12.6042 6.39568 16.7083 2.29163 21.7709 2.29163C26.8335 2.29163 30.9375 6.39568 30.9375 11.4583H38.9584C40.224 11.4583 41.25 12.4843 41.25 13.75V25.2083H43.5417C48.6043 25.2083 52.7084 29.3124 52.7084 34.375C52.7084 39.4376 48.6043 43.5416 43.5417 43.5416H41.25V50.4166C41.25 51.6823 40.224 52.7083 38.9584 52.7083H4.58335C3.3177 52.7083 2.29169 51.6823 2.29169 50.4166V41.25C2.29169 39.9843 3.3177 38.9583 4.58335 38.9583H9.16669C11.698 38.9583 13.75 36.9063 13.75 34.375C13.75 31.8437 11.698 29.7916 9.16669 29.7916H4.58335C3.3177 29.7916 2.29169 28.7656 2.29169 27.5V13.75C2.29169 12.4843 3.3177 11.4583 4.58335 11.4583H12.6042Z" fill="white"/>
</g>
<defs>
<filter id="filter0_i_13_66" x="0" y="0" width="55" height="59" filterUnits="userSpaceOnUse" color-interpolation-filters="sRGB">
<feFlood flood-opacity="0" result="BackgroundImageFix"/>
<feBlend mode="normal" in="SourceGraphic" in2="BackgroundImageFix" result="shape"/>
<feColorMatrix in="SourceAlpha" type="matrix" values="0 0 0 0 0 0 0 0 0 0 0 0 0 0 0 0 0 0 127 0" result="hardAlpha"/>
<feOffset dy="4"/>
<feGaussianBlur stdDeviation="2"/>
<feComposite in2="hardAlpha" operator="arithmetic" k2="-1" k3="1"/>
<feColorMatrix type="matrix" values="0 0 0 0 0 0 0 0 0 0 0 0 0 0 0 0 0 0 0.5 0"/>
<feBlend mode="normal" in2="shape" result="effect1_innerShadow_13_66"/>
</filter>
</defs>
</svg>
